<?xml version="1.0" encoding="utf-8"?>
<!-- Generator: Adobe Illustrator 23.0.0, SVG Export Plug-In . SVG Version: 6.00 Build 0)  -->
<svg version="1.1" id="Ebene_1" xmlns="http://www.w3.org/2000/svg" xmlns:xlink="http://www.w3.org/1999/xlink" x="0px" y="0px"
	 viewBox="0 0 1865.35 972.92" style="enable-background:new 0 0 1865.35 972.92;" xml:space="preserve">
<style type="text/css">
	.st0{fill:#FFFFFF;}
</style>
<path class="st0" d="M0.13,144.15h186.71V415.5H336v71.64H0.13V415.5h97.64V216.11H0.13V144.15z M91.42,56.34
	c0-6.76,1.21-13.05,3.65-18.86c2.43-5.81,5.86-10.78,10.3-14.9s9.77-7.34,16.01-9.67c6.23-2.32,13.16-3.49,20.76-3.49
	c15.64,0,28.05,4.39,37.25,13.16c9.19,8.77,13.79,20.03,13.79,33.76c0,13.74-4.6,24.99-13.79,33.76
	c-9.19,8.77-21.61,13.16-37.25,13.16c-7.61,0-14.53-1.16-20.76-3.49c-6.24-2.32-11.57-5.55-16.01-9.67s-7.87-9.08-10.3-14.9
	C92.64,69.39,91.42,63.11,91.42,56.34z"/>
<path class="st0" d="M416.02,144.15l5.39,47.55c12.26-17.12,27.15-30.38,44.7-39.78c17.54-9.4,36.98-14.11,58.33-14.11
	c17.33,0,33.18,2.54,47.55,7.61c14.37,5.07,26.79,13.16,37.25,24.25c10.46,11.1,18.6,25.36,24.41,42.8
	c5.81,17.44,8.72,38.63,8.72,63.56v211.12h-88.13V277.29c0-13.52-1.53-24.67-4.6-33.44c-3.07-8.77-7.45-15.69-13.16-20.76
	c-5.71-5.07-12.58-8.61-20.61-10.62c-8.03-2.01-17.12-3.01-27.26-3.01c-15.01,0-27.79,3.01-38.36,9.03
	c-10.57,6.02-19.13,14.32-25.68,24.88v243.78h-88.44v-343H416.02z"/>
<path class="st0" d="M669.77,313.11c0-25.99,3.01-49.77,9.03-71.33s14.85-40.05,26.47-55.48c11.62-15.42,25.73-27.37,42.32-35.82
	c16.59-8.45,35.56-12.68,56.9-12.68c17.96,0,33.76,3.22,47.39,9.67c13.63,6.45,25.73,15.59,36.3,27.42V0.23h88.44v486.92h-79.57
	l-4.44-35.82c-10.78,13.31-23.46,23.67-38.04,31.07c-14.58,7.4-31.49,11.1-50.72,11.1c-20.92,0-39.68-4.39-56.27-13.16
	c-16.59-8.77-30.64-20.87-42.16-36.3c-11.52-15.42-20.34-33.76-26.47-55c-6.13-21.24-9.19-44.33-9.19-69.27V313.11z M757.9,319.77
	c0,14.37,1.21,27.74,3.65,40.1c2.43,12.36,6.39,23.14,11.89,32.33c5.49,9.19,12.57,16.44,21.24,21.71
	c8.66,5.28,19.23,7.93,31.7,7.93c15.22,0,27.84-3.27,37.88-9.83c10.04-6.55,18.02-15.53,23.93-26.95V246.22
	c-5.92-11.62-13.84-20.65-23.78-27.1c-9.93-6.44-22.4-9.67-37.41-9.67c-12.47,0-23.09,2.69-31.86,8.08
	c-8.77,5.39-15.9,12.79-21.4,22.19c-5.5,9.41-9.51,20.4-12.05,32.97c-2.54,12.58-3.8,26.05-3.8,40.42V319.77z"/>
<path class="st0" d="M931,144.15h302.93V415.5H1347v71.64h-315V415.5h112.86V216.11H931V144.15z M1138.52,56.34
	c0-6.76,1.21-13.05,3.65-18.86c2.43-5.81,5.86-10.78,10.3-14.9c4.44-4.12,9.77-7.34,16.01-9.67c6.23-2.32,13.16-3.49,20.76-3.49
	c15.64,0,28.05,4.39,37.25,13.16c9.19,8.77,13.79,20.03,13.79,33.76c0,13.74-4.6,24.99-13.79,33.76
	c-9.19,8.77-21.61,13.16-37.25,13.16c-7.61,0-14.53-1.16-20.76-3.49c-6.24-2.32-11.57-5.55-16.01-9.67
	c-4.44-4.12-7.87-9.08-10.3-14.9C1139.73,69.39,1138.52,63.11,1138.52,56.34z"/>
<path class="st0" d="M1510.53,493.49c-26.42,0-50.4-4.33-71.96-13c-21.56-8.66-40.05-20.45-55.48-35.35
	c-15.43-14.9-27.32-32.44-35.66-52.62c-8.35-20.18-12.52-41.79-12.52-64.83v-12.68c0-26.2,4.12-50.14,12.36-71.8
	c8.24-21.66,19.76-40.31,34.55-55.95c14.79-15.64,32.33-27.79,52.62-36.46c20.29-8.66,42.37-13,66.25-13
	c24.73,0,46.76,4.07,66.1,12.2c19.34,8.14,35.71,19.61,49.14,34.39c13.42,14.79,23.62,32.6,30.59,53.42
	c6.97,20.82,10.46,43.8,10.46,68.95v37.41h-232.68c1.69,11.62,5.12,22.24,10.3,31.86c5.18,9.62,11.78,17.91,19.81,24.88
	c8.03,6.97,17.22,12.36,27.58,16.17c10.35,3.8,21.66,5.71,33.92,5.71c8.66,0,17.28-0.84,25.84-2.54c8.56-1.69,16.75-4.17,24.57-7.45
	c7.82-3.27,15.11-7.34,21.87-12.2c6.76-4.86,12.68-10.57,17.75-17.12l44.06,47.55c-5.5,7.82-12.63,15.48-21.4,22.98
	c-8.77,7.5-19.13,14.16-31.07,19.97c-11.94,5.82-25.2,10.52-39.78,14.11S1527.44,493.49,1510.53,493.49z M1500.07,209.14
	c-9.93,0-19.02,1.74-27.26,5.23s-15.48,8.51-21.71,15.06c-6.24,6.55-11.47,14.37-15.69,23.46c-4.23,9.09-7.4,19.23-9.51,30.43
	h144.55v-6.97c-0.42-9.3-2.22-18.07-5.39-26.31c-3.17-8.24-7.72-15.37-13.63-21.4c-5.92-6.02-13.16-10.78-21.71-14.27
	S1511.27,209.14,1500.07,209.14z"/>
<path class="st0" d="M278,760.02H0.76V688.7H278V760.02z"/>
<path class="st0" d="M464.48,825.29l-39.94,37.09v104.61h-88.13V385h88.13v373.4l26.63-30.43l94.78-103.98h105.88L522.49,766.96
	l147.41,200.03H561.8L464.48,825.29z"/>
<path class="st0" d="M871.03,966.99c-2.11-4.23-3.91-9.09-5.39-14.58c-1.48-5.49-2.75-11.3-3.8-17.44
	c-4.86,5.28-10.46,10.25-16.8,14.9c-6.34,4.65-13.37,8.72-21.08,12.2c-7.72,3.49-16.22,6.23-25.52,8.24
	c-9.3,2.01-19.34,3.01-30.12,3.01c-17.54,0-33.66-2.54-48.34-7.61c-14.69-5.07-27.32-12.15-37.88-21.24
	c-10.57-9.09-18.81-19.92-24.73-32.49c-5.92-12.57-8.88-26.26-8.88-41.05c0-36.14,13.47-64.09,40.42-83.85
	c26.95-19.76,67.15-29.64,120.62-29.64h49.14v-20.29c0-16.48-5.39-29.53-16.17-39.15c-10.78-9.61-26.31-14.42-46.6-14.42
	c-17.96,0-31.07,3.86-39.31,11.57c-8.24,7.72-12.36,18.02-12.36,30.91H656.1c0-14.58,3.22-28.42,9.67-41.53
	c6.44-13.1,15.85-24.62,28.21-34.55c12.36-9.93,27.47-17.8,45.33-23.62c17.86-5.81,38.3-8.72,61.34-8.72
	c20.71,0,39.99,2.54,57.85,7.61c17.86,5.07,33.34,12.58,46.44,22.51c13.1,9.93,23.35,22.46,30.75,37.56
	c7.4,15.11,11.1,32.6,11.1,52.46v147.09c0,18.39,1.16,33.6,3.49,45.65c2.32,12.05,5.71,22.4,10.14,31.07v5.39H871.03z
	 M787.02,905.17c8.88,0,17.12-1.06,24.73-3.17c7.61-2.11,14.47-4.86,20.61-8.24c6.13-3.38,11.41-7.24,15.85-11.57
	c4.44-4.33,7.93-8.72,10.46-13.16v-58.96h-45.01c-13.74,0-25.47,1.32-35.19,3.96c-9.72,2.64-17.65,6.34-23.78,11.1
	c-6.13,4.76-10.67,10.46-13.63,17.12c-2.96,6.66-4.44,13.9-4.44,21.71c0,11.84,4.17,21.66,12.52,29.48
	C757.49,901.26,770.11,905.17,787.02,905.17z"/>
<path class="st0" d="M1120.43,429v194.99h128.07v64.99h-128.07v147.41c0,12.47,1.43,22.88,4.28,31.22
	c2.85,8.35,6.92,15.01,12.2,19.97c5.28,4.97,11.68,8.51,19.18,10.62c7.5,2.11,15.9,3.17,25.2,3.17c6.76,0,13.68-0.32,20.76-0.95
	c7.08-0.63,13.84-1.43,20.29-2.38c6.44-0.95,12.47-1.95,18.07-3.01c5.6-1.06,10.41-2.11,14.42-3.17l8.56,60.55
	c-6.13,3.59-13.31,6.71-21.56,9.35c-8.24,2.64-17.01,4.81-26.31,6.5c-9.3,1.69-18.97,3.01-29.01,3.96
	c-10.04,0.95-19.92,1.43-29.64,1.43c-18.81,0-35.88-2.49-51.2-7.45c-15.32-4.96-28.43-12.68-39.31-23.14
	c-10.89-10.46-19.29-23.78-25.2-39.94c-5.92-16.17-8.88-35.56-8.88-58.17V688.97H954v-64.99h78.3L1032,429H1120.43z"/>
<path class="st0" d="M1256.16,792.32c0-24.94,3.59-48.03,10.78-69.27c7.18-21.24,17.7-39.68,31.54-55.32
	c13.84-15.64,30.75-27.9,50.72-36.77c19.97-8.88,42.85-13.31,68.63-13.31c25.78,0,48.71,4.44,68.79,13.31
	c20.08,8.88,37.04,21.13,50.88,36.77c13.84,15.64,24.36,34.08,31.54,55.32c7.18,21.24,10.78,44.33,10.78,69.27v6.66
	c0,25.15-3.59,48.34-10.78,69.58c-7.19,21.24-17.65,39.68-31.38,55.32c-13.74,15.64-30.64,27.85-50.72,36.61
	c-20.08,8.77-42.9,13.16-68.47,13.16c-25.79,0-48.77-4.39-68.95-13.16c-20.18-8.77-37.2-20.97-51.04-36.61
	c-13.84-15.64-24.36-34.08-31.54-55.32c-7.19-21.24-10.78-44.43-10.78-69.58V792.32z M1344.29,798.97c0,14.37,1.37,27.85,4.12,40.42
	c2.75,12.58,7.08,23.57,13,32.97c5.92,9.41,13.58,16.86,22.98,22.35c9.4,5.5,20.76,8.24,34.08,8.24c12.89,0,23.98-2.75,33.29-8.24
	c9.3-5.49,16.85-12.94,22.67-22.35c5.81-9.4,10.09-20.39,12.84-32.97c2.75-12.57,4.12-26.04,4.12-40.42v-6.66
	c0-13.95-1.38-27.15-4.12-39.63c-2.75-12.47-7.03-23.46-12.84-32.97c-5.81-9.51-13.37-17.01-22.67-22.51
	c-9.3-5.49-20.61-8.24-33.92-8.24c-13.1,0-24.3,2.75-33.6,8.24c-9.3,5.5-16.91,13-22.82,22.51c-5.92,9.51-10.25,20.5-13,32.97
	c-2.75,12.47-4.12,25.68-4.12,39.63V798.97z"/>
<path class="st0" d="M1800.65,617.65c13.31,0,25.62,0.9,36.93,2.69c11.3,1.8,20.45,3.75,27.42,5.86l-13,87.81
	c-11.62-2.75-23.51-4.81-35.66-6.18c-12.15-1.37-23.72-2.06-34.71-2.06c-24.73,0-44.54,4.76-59.44,14.27
	c-14.9,9.51-26.05,23.14-33.44,40.89v206.05h-88.13v-343h82.1l4.12,56.11c13.95-19.44,30.64-34.71,50.09-45.81
	C1756.37,623.2,1777.61,617.65,1800.65,617.65z"/>
</svg>
