<?xml version="1.0" standalone="no"?>
<!DOCTYPE svg PUBLIC "-//W3C//DTD SVG 20010904//EN"
 "http://www.w3.org/TR/2001/REC-SVG-20010904/DTD/svg10.dtd">
<svg version="1.0" xmlns="http://www.w3.org/2000/svg"
 width="1865.000000pt" height="1865.000000pt" viewBox="0 0 1865.000000 1865.000000"
 preserveAspectRatio="xMidYMid meet">
<metadata>
Created by potrace 1.11, written by Peter Selinger 2001-2013
</metadata>
<g transform="translate(0.000000,1865.000000) scale(0.100000,-0.100000)"
fill="#000000" stroke="none">
<path d="M8878 14153 c-2 -19 -1 -36 4 -39 4 -3 3 -16 -2 -29 -5 -13 -6 -26
-1 -29 8 -5 5 -71 -4 -86 -3 -6 -1 -10 5 -10 7 0 8 -6 1 -18 -6 -11 -6 -24 0
-34 6 -10 6 -19 0 -22 -6 -4 -6 -18 -1 -36 5 -18 5 -32 -1 -35 -5 -4 -5 -14 1
-25 7 -13 7 -21 0 -25 -8 -5 -8 -11 -1 -19 6 -7 8 -16 5 -19 -8 -8 -9 -85 -1
-93 3 -3 2 -17 -3 -30 -5 -13 -6 -26 -1 -28 4 -3 5 -26 1 -51 -4 -25 -3 -48 1
-51 5 -2 4 -16 -1 -29 -5 -13 -6 -26 -1 -29 8 -5 5 -71 -4 -86 -3 -6 -1 -10 5
-10 7 0 8 -6 1 -18 -6 -11 -6 -24 0 -34 6 -10 6 -19 0 -22 -6 -4 -6 -18 -1
-36 5 -18 5 -32 -1 -35 -5 -4 -5 -14 1 -25 7 -13 7 -21 0 -25 -8 -5 -8 -11 -1
-19 6 -7 8 -16 5 -19 -8 -8 -9 -85 -1 -93 3 -3 2 -17 -3 -30 -5 -13 -6 -25 -1
-28 8 -5 5 -71 -4 -86 -3 -6 -1 -10 5 -10 7 0 8 -6 1 -18 -6 -11 -6 -24 0 -34
6 -10 6 -19 0 -22 -6 -4 -6 -18 -1 -36 5 -18 5 -32 -1 -35 -5 -4 -5 -14 1 -25
7 -13 7 -21 0 -25 -7 -5 -8 -11 -1 -19 5 -6 6 -17 2 -24 -4 -7 -5 -33 -1 -57
4 -25 3 -45 -1 -45 -4 0 -4 -14 1 -31 10 -35 15 -38 -80 51 -70 67 -199 156
-270 188 -115 51 -139 60 -144 55 -2 -3 -11 -1 -18 3 -7 5 -17 9 -23 10 -5 1
-23 5 -40 8 -53 11 -109 19 -137 20 -16 1 -28 5 -28 10 0 6 -4 6 -10 0 -6 -6
-30 -8 -58 -4 -26 3 -64 3 -84 -1 -21 -3 -42 -1 -48 5 -7 7 -10 6 -10 -2 0 -7
-12 -12 -27 -11 -36 2 -91 -6 -198 -31 -123 -28 -315 -123 -429 -213 -64 -50
-156 -144 -156 -158 0 -7 -3 -9 -7 -6 -8 9 -107 -127 -160 -220 -55 -96 -129
-268 -149 -348 -2 -5 -12 -44 -24 -85 -11 -41 -22 -84 -24 -95 -2 -11 -7 -36
-11 -55 -4 -19 -9 -46 -10 -60 -2 -14 -7 -41 -10 -60 -16 -91 -28 -298 -27
-469 0 -80 1 -148 2 -151 1 -3 3 -25 5 -50 7 -107 15 -184 20 -200 3 -10 7
-35 10 -56 3 -34 14 -89 32 -159 2 -11 6 -29 8 -40 2 -11 8 -33 15 -50 6 -16
13 -37 15 -45 26 -106 157 -387 207 -440 10 -10 18 -23 18 -27 0 -21 250 -287
250 -267 0 5 4 4 8 -1 31 -44 243 -164 347 -197 42 -13 62 -19 115 -33 5 -1
67 -11 135 -22 40 -6 272 -6 310 1 17 3 46 8 65 11 239 40 479 180 640 374 11
13 22 22 24 20 2 -2 7 -33 11 -69 8 -80 13 -122 21 -180 4 -25 7 -57 8 -72 1
-25 5 -28 36 -29 19 0 199 -1 400 -1 l365 -1 0 1354 0 1354 83 0 c45 0 82 4
82 8 0 5 5 5 11 1 15 -9 469 -11 469 -2 0 4 7 5 16 1 23 -9 464 -10 464 -1 0
4 7 5 16 1 9 -3 134 -7 278 -7 l261 -1 1 -985 c0 -542 -1 -990 -3 -995 -2 -7
-197 -10 -563 -10 l-560 0 -1 -30 c-1 -62 0 -1070 2 -1075 1 -3 1 -9 0 -14 -1
-4 -1 -43 -1 -85 1 -113 0 -135 -5 -139 -2 -3 0 -13 5 -23 7 -11 7 -20 0 -24
-5 -3 -6 -15 -1 -27 4 -12 5 -36 1 -54 -4 -18 -4 -38 1 -45 4 -7 4 -20 -1 -30
-5 -9 -7 -19 -3 -22 5 -5 7 -80 3 -99 -5 -22 -2 -86 4 -96 3 -6 2 -13 -4 -17
-6 -4 -7 -11 -4 -17 8 -12 11 -118 4 -118 -7 0 -4 -69 3 -76 3 -3 1 -19 -3
-35 -5 -18 -5 -27 1 -24 5 4 5 -3 0 -16 -7 -21 -14 -23 -67 -20 -32 1 -62 5
-66 7 -3 2 -9 1 -11 -3 -3 -5 -58 -6 -122 -3 -64 3 -119 2 -121 -1 -2 -4 -20
-3 -39 1 -19 4 -37 5 -39 1 -2 -3 -57 -4 -121 -1 -64 3 -119 3 -121 0 -3 -2
-21 -3 -40 -1 -32 2 -34 1 -35 -31 0 -47 0 -547 0 -585 l1 -33 388 0 c304 0
389 -3 390 -12 5 -45 6 -128 2 -128 -5 0 -4 -40 3 -107 2 -18 0 -33 -5 -33 -4
0 -3 -12 2 -26 7 -17 7 -32 0 -45 -6 -10 -7 -19 -3 -19 4 0 7 -26 5 -57 -3
-69 -3 -63 0 -136 2 -31 1 -57 -2 -57 -5 0 -4 -40 3 -107 2 -18 0 -33 -5 -33
-4 0 -3 -12 2 -26 7 -17 7 -32 0 -45 -6 -10 -7 -19 -3 -19 4 0 7 -26 5 -57 -3
-69 -3 -63 0 -136 2 -31 1 -57 -2 -57 -5 0 -4 -40 3 -107 2 -18 0 -33 -5 -33
-4 0 -3 -12 2 -26 7 -17 7 -32 0 -45 -6 -10 -7 -19 -3 -19 4 0 7 -26 5 -57 -3
-68 -3 -61 0 -141 2 -34 -1 -62 -5 -62 -5 0 -5 -5 -2 -11 4 -6 9 -45 11 -87 4
-93 19 -216 30 -254 3 -10 7 -30 10 -45 13 -75 51 -179 101 -281 31 -61 60
-112 64 -112 5 0 9 -6 9 -13 0 -12 33 -52 112 -137 18 -19 62 -56 98 -82 36
-27 70 -52 75 -56 37 -29 236 -111 306 -126 13 -3 42 -10 64 -15 22 -6 65 -14
95 -18 75 -11 558 -10 645 1 95 12 110 14 110 16 0 1 16 3 35 6 19 2 60 9 90
15 30 6 64 13 75 14 11 1 27 5 35 8 8 3 29 9 45 13 37 9 43 11 53 14 4 2 12 4
17 5 20 3 132 47 183 73 l54 27 -6 45 c-9 64 -27 190 -31 220 -2 14 -6 43 -10
65 -3 22 -8 58 -11 80 -3 22 -7 49 -9 60 -1 11 -6 43 -10 70 -4 28 -9 53 -12
57 -3 6 -42 4 -50 -3 -4 -2 -12 -4 -63 -13 -25 -5 -54 -10 -65 -12 -78 -15
-136 -24 -175 -29 -25 -3 -65 -7 -90 -10 -103 -12 -140 -14 -245 -15 -136 -1
-203 5 -278 25 -139 36 -230 106 -295 225 -16 29 -63 160 -57 160 2 0 -1 15
-7 33 -7 21 -12 302 -13 854 l-2 823 640 2 641 3 0 315 c0 190 -4 316 -9 319
-45 17 -55 19 -59 13 -2 -4 -57 -5 -121 -2 -64 3 -118 3 -120 0 -2 -3 -128 -3
-280 0 -152 3 -278 3 -280 0 -2 -3 -56 -3 -120 0 -64 3 -118 3 -120 0 -2 -3
-41 -4 -87 -2 l-85 3 1 682 1 682 1115 2 c613 1 1122 2 1131 2 14 1 16 39 16
356 0 195 -3 356 -6 356 -3 1 -251 3 -551 4 -300 1 -552 3 -560 4 -13 1 -15
38 -14 269 0 147 3 273 8 280 4 6 3 12 -2 12 -11 0 -10 50 1 68 5 6 5 12 0 12
-10 0 -9 211 1 228 4 7 4 12 -1 12 -10 0 -9 291 1 308 4 7 3 12 -2 12 -11 0
-10 50 1 68 5 6 5 12 0 12 -10 0 -9 211 1 228 4 7 4 12 -1 12 -10 0 -9 771 1
788 4 7 4 12 -1 12 -4 0 -8 87 -8 192 l0 193 -1280 2 c-704 1 -1282 2 -1285 2
-3 1 -5 324 -5 718 l0 718 -442 1 -441 2 -4 -35z m-493 -2067 c105 -14 252
-71 285 -111 7 -8 16 -15 21 -15 28 0 177 -190 186 -239 7 -34 9 -71 4 -71 -8
0 -5 -89 2 -96 3 -4 2 -17 -3 -30 -5 -13 -6 -25 -1 -28 8 -5 5 -71 -4 -86 -3
-6 -1 -10 5 -10 7 0 8 -5 1 -17 -6 -11 -6 -24 0 -35 5 -10 5 -19 0 -23 -6 -3
-6 -17 -1 -35 5 -18 5 -32 -1 -35 -5 -4 -5 -14 1 -25 7 -13 7 -21 0 -25 -8 -5
-8 -11 -1 -19 6 -7 8 -16 5 -19 -8 -8 -9 -85 -1 -93 3 -3 2 -17 -3 -30 -5 -13
-6 -26 -1 -28 4 -3 5 -26 1 -51 -4 -25 -3 -48 1 -51 5 -2 4 -16 -1 -29 -5 -13
-6 -26 -1 -29 8 -5 5 -71 -4 -86 -3 -6 -1 -10 5 -10 7 0 8 -5 1 -17 -6 -11 -6
-24 0 -35 5 -10 5 -19 0 -23 -6 -3 -6 -17 -1 -35 5 -18 5 -32 -1 -35 -5 -4 -5
-14 1 -25 7 -13 7 -21 0 -25 -8 -5 -8 -11 -1 -19 6 -7 8 -16 5 -19 -8 -8 -9
-85 -1 -93 3 -3 2 -17 -3 -30 -6 -14 -6 -26 0 -29 32 -20 -102 -203 -204 -280
-112 -84 -260 -125 -433 -119 -54 1 -108 5 -120 8 -13 3 -31 8 -42 10 -94 21
-218 104 -292 196 -43 52 -121 195 -112 204 4 3 1 6 -5 6 -7 0 -11 3 -10 8 0
4 -1 14 -4 22 -3 8 -11 33 -16 55 -25 90 -25 92 -36 156 -3 19 -8 44 -10 56
-22 105 -22 535 -1 645 3 12 7 40 10 63 3 22 8 48 11 57 5 16 10 40 20 86 6
32 50 149 72 192 51 104 171 237 247 275 22 11 42 22 45 25 11 12 105 38 170
46 25 4 46 7 47 8 5 4 118 -1 168 -8z"/>
<path d="M1376 14092 c-2 -1 -23 -4 -47 -6 -55 -4 -109 -16 -109 -25 0 -4 -10
-7 -22 -8 -11 -1 -24 -6 -27 -10 -3 -5 -19 -14 -34 -21 -33 -14 -46 -25 -95
-74 -57 -58 -70 -78 -102 -162 -26 -68 -31 -210 -10 -287 15 -55 57 -139 80
-161 10 -9 20 -21 21 -25 9 -19 98 -82 149 -105 83 -38 132 -47 250 -47 157 0
266 40 370 136 27 25 50 51 50 56 0 6 6 18 13 26 59 70 84 269 48 387 -46 152
-150 258 -296 299 -33 10 -69 21 -81 25 -11 4 -28 4 -37 -2 -9 -5 -17 -5 -17
-1 0 7 -97 12 -104 5z"/>
<path d="M11814 14091 c-2 -3 -21 -6 -42 -8 -42 -3 -152 -46 -197 -77 -83 -57
-163 -178 -181 -270 -10 -57 -11 -156 -2 -201 9 -45 15 -69 18 -72 2 -2 3 -6
4 -10 5 -21 39 -83 57 -102 11 -11 17 -21 14 -21 -8 0 9 -16 65 -61 70 -56
163 -95 255 -105 48 -6 158 -5 185 1 14 3 34 7 45 9 164 26 311 163 349 326
20 86 14 231 -14 303 -54 144 -202 259 -360 282 -57 8 -189 12 -196 6z"/>
<path d="M5124 12812 c4 -6 -1 -11 -11 -10 -26 1 -101 -10 -153 -22 -25 -6
-55 -12 -67 -14 -12 -2 -28 -8 -35 -12 -7 -5 -20 -10 -29 -11 -49 -8 -298
-141 -307 -165 -2 -4 -8 -8 -13 -8 -21 0 -178 -149 -241 -228 -28 -35 -52 -62
-53 -60 -2 2 -6 30 -10 63 -3 33 -8 74 -10 90 -5 36 -12 97 -21 180 -3 33 -8
69 -9 80 -1 11 -3 27 -4 36 -1 15 -38 17 -400 16 l-399 0 -5 -23 c-2 -13 -1
-24 2 -24 3 0 6 -13 6 -30 0 -16 -3 -30 -7 -30 -3 0 -3 -12 1 -27 4 -16 4 -43
0 -61 -4 -17 -4 -34 0 -36 8 -5 7 -48 -2 -62 -3 -5 -2 -16 3 -24 5 -8 5 -22
-1 -32 -5 -10 -6 -18 -2 -18 4 0 8 -13 8 -30 0 -16 -4 -30 -8 -30 -5 0 -5 -5
-2 -10 10 -16 12 -110 3 -110 -5 0 -5 -8 1 -17 6 -11 6 -24 0 -35 -6 -12 -6
-18 0 -18 6 0 6 -11 2 -28 -5 -15 -5 -37 0 -49 5 -13 4 -25 -1 -28 -6 -4 -7
-13 -1 -23 6 -11 6 -24 0 -35 -7 -11 -7 -17 0 -17 6 0 7 -11 2 -27 -4 -16 -4
-40 0 -55 4 -16 3 -28 -1 -28 -5 0 -5 -12 -1 -27 8 -26 5 -72 -4 -81 -2 -2 0
-15 5 -28 6 -14 6 -26 -1 -29 -5 -4 -6 -11 -2 -18 10 -16 10 -58 1 -63 -5 -3
-5 -10 -1 -17 10 -16 10 -57 0 -57 -4 0 -3 -8 2 -19 6 -10 8 -21 5 -24 -9 -9
-10 -78 -2 -83 4 -3 3 -15 -1 -27 -5 -12 -5 -33 -1 -47 4 -14 4 -34 0 -45 -4
-11 -4 -32 1 -47 4 -16 4 -28 -1 -28 -7 0 1 -47 10 -63 1 -1 -3 -13 -8 -27 -5
-14 -6 -34 -2 -45 4 -11 3 -25 -2 -32 -5 -6 -5 -14 0 -17 5 -3 6 -26 2 -51 -4
-25 -3 -45 1 -45 4 0 4 -13 -1 -30 -5 -16 -5 -30 -2 -30 9 0 7 -64 -2 -79 -4
-5 -2 -12 3 -16 7 -3 7 -15 1 -30 -5 -13 -6 -26 -2 -29 8 -5 6 -85 -2 -93 -3
-3 -1 -16 4 -29 6 -15 6 -26 -1 -30 -6 -3 -6 -10 -1 -17 5 -7 6 -23 2 -37 -4
-14 -3 -35 1 -47 5 -13 4 -25 -1 -28 -6 -4 -7 -13 -1 -23 6 -11 6 -24 0 -35
-7 -11 -7 -17 0 -17 6 0 7 -11 2 -27 -4 -16 -4 -40 0 -55 4 -16 3 -28 -1 -28
-5 0 -5 -14 0 -30 10 -36 10 -38 -1 -67 -5 -13 -5 -23 -1 -23 8 0 7 -63 -1
-77 -4 -6 -1432 -10 -1482 -4 -7 1 -9 458 -8 1355 l1 1353 -931 -1 -932 -1 -2
-357 -1 -358 26 -1 c157 -4 462 -2 462 3 0 4 7 5 16 1 9 -3 119 -7 243 -7
l226 -1 0 -995 0 -995 -487 0 -487 0 0 -357 c1 -327 2 -358 17 -359 9 0 765
-1 1680 -1 914 -1 1662 -4 1663 -7 0 -3 2 -1081 2 -2396 l2 -2390 434 -3 c272
-1 437 1 441 7 3 6 5 241 5 523 0 507 0 512 21 533 12 11 67 63 124 115 125
115 144 133 202 189 54 51 50 52 118 -49 24 -36 47 -66 52 -68 4 -2 8 -9 8
-14 0 -6 18 -35 40 -64 22 -29 40 -57 40 -63 0 -5 4 -11 8 -13 7 -3 107 -145
137 -195 12 -21 26 -39 43 -58 6 -7 12 -17 12 -20 0 -4 10 -20 23 -35 12 -15
28 -36 34 -46 54 -84 108 -160 115 -162 4 -2 8 -9 8 -14 0 -6 18 -35 40 -64
22 -29 40 -56 40 -59 0 -3 5 -11 11 -18 10 -12 66 -92 219 -316 l75 -110 538
-1 c295 0 537 3 537 6 0 5 -55 80 -185 255 -67 90 -79 107 -152 208 -35 47
-71 96 -80 108 -10 12 -35 46 -57 75 -95 131 -266 364 -276 375 -6 7 -24 32
-40 55 -16 24 -39 55 -52 70 -13 15 -50 65 -82 112 -33 47 -64 86 -68 86 -4 0
-8 4 -8 10 0 5 -21 38 -47 72 -25 35 -68 92 -94 128 -27 36 -55 72 -64 81 -8
9 -15 19 -15 23 0 7 -51 76 -77 104 -7 7 -13 17 -13 20 0 4 -10 19 -22 32 -13
14 -39 48 -58 75 -19 28 -38 52 -42 53 -4 2 -8 10 -8 18 0 8 -4 14 -10 14 -17
0 -11 24 13 51 12 14 60 68 107 119 47 51 93 102 102 112 26 30 139 155 173
192 17 18 59 65 95 106 36 40 70 78 76 84 5 6 31 35 57 64 26 29 47 49 47 45
0 -4 8 4 18 18 9 15 53 66 97 114 44 48 88 97 98 109 10 12 52 58 94 103 41
45 84 92 95 105 11 13 54 61 96 106 120 131 118 123 24 121 -44 -1 -84 1 -90
5 -6 3 -13 3 -15 -1 -3 -5 -55 -6 -117 -3 -62 3 -114 2 -116 -1 -2 -4 -20 -3
-39 1 -19 4 -37 5 -39 1 -2 -3 -57 -4 -121 -1 -64 3 -118 3 -120 2 -2 -2 -73
-3 -159 -3 l-155 2 -31 -33 c-18 -18 -57 -61 -88 -96 -31 -35 -72 -80 -91
-101 -31 -32 -99 -107 -211 -231 -56 -61 -186 -204 -205 -224 -11 -12 -40 -44
-65 -72 -80 -88 -244 -268 -267 -292 -13 -12 -23 -27 -23 -33 0 -6 -4 -7 -10
-4 -5 3 -10 2 -10 -4 0 -8 -104 -132 -180 -213 -11 -12 -20 -26 -20 -30 0 -5
-3 -7 -7 -5 -5 3 -8 1161 -8 2574 1 2515 1 2569 20 2598 88 137 275 263 434
292 205 37 453 11 583 -62 41 -23 114 -87 145 -127 36 -48 81 -163 98 -253 13
-70 17 -315 18 -1289 l2 -1029 433 0 c238 0 435 3 439 7 9 8 7 2146 -1 2276
-11 152 -12 167 -32 260 -3 14 -6 32 -6 40 0 8 -2 22 -5 30 -8 19 -10 28 -16
69 -3 19 -9 37 -14 40 -4 3 -9 16 -11 29 -2 12 -10 35 -18 50 -7 15 -14 31
-14 36 0 14 -90 188 -106 207 -8 8 -14 18 -14 21 0 14 -169 198 -182 198 -5 0
-21 12 -38 26 -16 15 -39 32 -52 38 -108 58 -157 81 -188 91 -73 23 -125 37
-147 42 -41 7 -58 11 -58 13 0 1 -72 9 -140 15 -27 2 -52 4 -55 5 -9 2 -114 0
-140 -3 -14 -2 -33 1 -44 6 -12 6 -16 6 -12 -1z"/>
<path d="M14901 12815 c-1 -6 -16 -11 -33 -11 -18 0 -58 -4 -88 -8 -85 -12
-134 -18 -147 -19 -7 0 -13 -3 -13 -7 0 -5 -22 -10 -62 -13 -10 -1 -18 -4 -18
-7 0 -3 -12 -7 -26 -8 -14 -1 -31 -5 -37 -9 -7 -4 -14 -8 -17 -9 -3 0 -14 -4
-25 -8 -11 -4 -33 -13 -50 -18 -57 -20 -235 -110 -235 -118 0 -5 -10 -12 -22
-16 -25 -7 -129 -79 -165 -113 -13 -12 -23 -20 -23 -18 0 7 -128 -121 -175
-174 -22 -25 -53 -65 -70 -90 -16 -24 -32 -46 -35 -49 -11 -10 -58 -87 -87
-140 -73 -134 -155 -352 -168 -445 -1 -11 -3 -20 -4 -20 -2 0 -4 -7 -6 -15 -2
-8 -6 -28 -10 -45 -3 -16 -8 -48 -11 -70 -2 -22 -6 -56 -10 -75 -11 -65 -14
-144 -14 -320 0 -154 5 -295 10 -295 3 0 9 -36 15 -88 3 -27 7 -52 9 -56 3 -4
7 -18 10 -32 3 -13 8 -35 11 -49 3 -14 7 -29 8 -35 2 -5 6 -16 10 -22 5 -7 6
-13 3 -13 -8 0 39 -120 86 -221 23 -49 45 -89 50 -89 4 0 8 -6 8 -13 0 -18 99
-167 111 -167 5 0 9 -6 9 -13 0 -13 155 -177 215 -227 30 -26 183 -135 220
-157 27 -17 211 -108 255 -126 30 -12 165 -59 180 -62 5 -1 115 -26 135 -31
25 -6 74 -13 115 -18 25 -3 65 -8 90 -11 105 -13 422 -6 502 11 13 3 39 7 58
9 109 13 335 84 480 152 83 38 226 117 240 133 3 3 23 18 45 35 37 27 113 95
174 156 44 44 90 103 91 117 0 7 -15 27 -32 46 -29 29 -96 100 -303 325 -33
36 -68 73 -77 83 -18 19 -38 24 -38 10 0 -7 -63 -73 -115 -121 -11 -10 -40
-31 -65 -47 -25 -16 -47 -32 -50 -35 -5 -6 -90 -52 -100 -54 -3 0 -27 -11 -54
-23 -27 -12 -52 -22 -57 -22 -4 0 -20 -5 -36 -12 -34 -14 -40 -15 -78 -23 -16
-3 -36 -8 -44 -11 -8 -2 -28 -7 -45 -9 -17 -3 -57 -9 -88 -13 -139 -21 -340
-3 -478 44 -167 56 -341 188 -430 324 -16 25 -34 50 -40 57 -5 7 -10 15 -10
18 0 3 -12 29 -26 58 -41 84 -90 249 -79 267 3 4 516 8 1142 8 626 0 1148 1
1160 1 l21 1 -3 283 c-2 155 -6 300 -9 322 -3 22 -8 62 -11 89 -4 40 -15 99
-39 218 -2 7 -5 20 -8 28 -15 41 -31 102 -31 115 0 8 -4 15 -9 15 -4 0 -7 3
-6 8 2 4 -6 27 -16 52 -10 25 -17 46 -17 48 1 1 -20 44 -46 95 -83 160 -155
261 -273 377 -81 79 -93 89 -195 157 -44 29 -85 58 -92 63 -7 6 -19 10 -27 10
-8 0 -21 6 -28 13 -14 15 -180 82 -216 88 -4 0 -14 5 -22 9 -8 4 -31 11 -51
14 -20 3 -47 10 -61 15 -13 5 -49 12 -79 15 -30 4 -79 10 -111 14 -31 5 -63 7
-72 6 -9 -1 -16 2 -16 8 0 7 -5 7 -12 1 -7 -5 -24 -8 -38 -6 -40 5 -150 4
-160 -2 -4 -3 -11 1 -13 7 -3 7 -6 8 -6 3z m249 -730 c127 -20 255 -84 345
-172 58 -56 115 -132 115 -153 0 -5 5 -10 10 -10 6 0 10 -9 10 -19 0 -11 4
-22 9 -25 8 -5 38 -101 31 -101 -2 0 1 -9 7 -20 6 -11 14 -50 17 -85 3 -36 8
-75 10 -87 3 -13 0 -25 -5 -28 -5 -4 -7 -11 -4 -16 4 -5 -4 -9 -17 -10 -29 -1
-1389 -1 -1406 0 -9 1 -11 11 -7 39 11 58 75 246 88 254 7 4 8 8 4 8 -10 0 44
97 82 150 34 46 80 98 110 124 14 12 32 28 41 36 9 8 23 16 31 18 7 2 16 7 19
12 13 20 159 76 222 85 24 4 44 8 46 10 5 5 196 -2 242 -10z"/>
<path d="M7836 8013 c-3 -4 -18 -8 -33 -9 -16 -2 -48 -6 -73 -8 -25 -3 -65 -8
-90 -12 -25 -4 -53 -8 -62 -8 -10 0 -18 -3 -18 -7 0 -3 -8 -6 -17 -6 -10 1
-38 -5 -63 -12 -25 -7 -52 -14 -60 -16 -65 -13 -337 -138 -395 -183 -13 -9
-33 -24 -46 -32 -24 -15 -103 -85 -150 -131 -104 -104 -218 -311 -243 -444 -4
-16 -9 -46 -13 -65 -3 -19 -7 -59 -7 -87 -1 -29 -5 -53 -11 -54 -5 0 3 -5 18
-9 16 -5 39 -5 52 0 13 5 25 6 28 3 8 -7 776 -7 784 0 3 3 6 19 8 34 6 71 20
121 46 171 81 148 226 212 481 213 64 1 121 -1 125 -4 4 -3 24 -8 43 -11 60
-10 73 -13 129 -35 162 -61 283 -210 307 -377 8 -53 12 -304 5 -305 -3 -1
-157 -2 -341 -4 -184 -1 -369 -5 -410 -10 -41 -4 -93 -8 -115 -10 -153 -14
-391 -64 -485 -102 -8 -3 -18 -5 -22 -5 -5 1 -8 -3 -8 -9 0 -5 -4 -8 -8 -5 -5
3 -19 -1 -33 -8 -13 -7 -27 -13 -31 -14 -26 -6 -158 -77 -158 -84 0 -4 -5 -8
-11 -8 -13 0 -85 -49 -121 -83 -16 -15 -28 -24 -28 -22 0 3 -64 -64 -118 -124
-12 -14 -24 -33 -28 -43 -3 -10 -9 -18 -12 -18 -4 0 -19 -21 -32 -47 -14 -27
-28 -50 -31 -53 -9 -8 -58 -147 -64 -182 -3 -17 -9 -36 -13 -42 -4 -6 -7 -18
-8 -26 0 -8 -4 -46 -9 -85 -11 -96 -12 -198 -2 -270 4 -33 9 -71 11 -85 7 -58
75 -240 89 -240 6 0 8 -3 4 -6 -5 -5 47 -100 63 -114 3 -3 17 -21 32 -40 54
-71 167 -175 238 -218 120 -73 303 -149 400 -167 19 -4 67 -13 105 -20 86 -15
370 -19 445 -6 30 6 69 12 85 14 25 4 142 35 193 52 7 3 14 5 17 5 2 1 44 21
92 44 129 64 244 146 333 239 17 17 18 16 25 -15 4 -18 8 -42 10 -53 1 -11 5
-28 9 -37 4 -9 5 -22 1 -28 -3 -5 -2 -10 3 -10 5 0 9 -7 10 -15 1 -8 3 -22 4
-30 1 -8 4 -15 8 -15 3 0 6 -9 7 -21 1 -11 10 -34 20 -50 l18 -30 440 1 c311
0 441 4 446 12 10 15 -7 72 -42 140 -13 26 -67 246 -74 303 -14 121 -17 249
-20 1085 -2 487 -6 901 -9 920 -4 19 -8 51 -11 70 -15 126 -112 360 -177 430
-10 10 -18 22 -18 24 0 28 -244 256 -274 256 -4 0 -16 9 -28 20 -12 10 -24 17
-28 15 -4 -3 -13 2 -20 10 -7 8 -19 15 -26 15 -8 0 -14 3 -14 8 0 4 -15 12
-32 19 -18 6 -80 30 -138 52 -58 23 -119 43 -136 45 -17 2 -35 5 -40 8 -8 5
-64 17 -149 33 -37 7 -139 17 -182 18 -18 1 -33 5 -33 10 0 5 -6 5 -13 -1 -7
-6 -18 -8 -24 -4 -13 8 -212 7 -220 -1 -3 -3 -15 -2 -28 3 -13 5 -26 6 -29 3z
m299 -1928 c22 1 46 4 53 9 6 4 12 3 12 -1 0 -5 19 -8 43 -6 55 5 66 5 105 0
17 -3 32 -2 32 2 0 3 11 6 25 6 14 0 25 -3 25 -6 0 -8 64 -4 78 5 7 4 12 3 12
-1 0 -5 15 -9 32 -9 l33 1 0 -295 0 -295 -30 -40 c-33 -44 -110 -121 -145
-145 -12 -8 -32 -22 -44 -31 -47 -35 -229 -112 -240 -102 -3 4 -6 1 -6 -6 0
-7 -4 -10 -9 -7 -4 3 -23 1 -40 -4 -84 -24 -261 -26 -371 -5 -59 11 -88 21
-139 48 -40 20 -125 110 -149 157 -82 163 -54 374 69 514 41 46 159 134 159
119 0 -4 4 -3 8 3 5 9 92 43 122 49 3 1 19 4 35 8 74 18 146 28 222 31 23 1
45 5 49 9 4 4 10 4 13 -1 3 -4 24 -7 46 -7z"/>
<path d="M14104 8011 c-2 -2 -37 -5 -76 -7 -98 -4 -218 -19 -248 -31 -19 -8
-17 -7 -65 -17 -151 -30 -423 -166 -564 -283 -57 -46 -164 -155 -201 -203 -19
-25 -37 -47 -41 -50 -13 -11 -79 -110 -79 -120 0 -5 -3 -10 -8 -10 -4 0 -14
-15 -21 -32 -8 -18 -29 -58 -45 -89 -17 -30 -32 -62 -34 -70 -2 -8 -10 -27
-18 -44 -14 -30 -62 -172 -70 -210 -8 -31 -10 -39 -17 -60 -3 -11 -8 -36 -11
-55 -3 -19 -8 -46 -11 -60 -12 -58 -26 -180 -31 -258 -5 -88 -4 -272 1 -347
13 -188 16 -213 44 -335 5 -25 13 -58 16 -75 7 -34 7 -34 25 -95 7 -25 14 -49
16 -55 7 -29 77 -190 112 -255 100 -190 245 -363 397 -477 33 -24 67 -50 76
-58 9 -7 26 -16 38 -20 12 -3 21 -11 21 -16 0 -5 5 -9 12 -9 6 0 19 -6 27 -13
31 -26 249 -118 311 -132 8 -2 42 -11 75 -20 33 -8 78 -18 100 -21 22 -3 60
-10 85 -14 60 -12 463 -11 521 0 26 5 64 11 85 14 104 13 299 78 423 140 201
102 405 281 533 468 57 84 127 214 168 313 16 40 35 90 35 95 0 3 4 11 8 18 5
6 6 12 3 12 -3 0 2 16 10 35 8 19 14 37 14 40 0 3 1 7 1 10 1 3 3 10 4 15 1 6
4 12 5 15 1 3 4 14 5 25 1 11 4 21 5 23 1 1 4 11 5 22 3 21 10 61 19 105 35
165 39 558 9 765 -4 28 -7 62 -8 78 0 15 -3 27 -6 27 -4 0 -10 21 -14 48 -9
62 -55 218 -94 314 -38 97 -116 246 -144 276 -11 12 -17 22 -14 22 4 0 -20 35
-54 78 -65 82 -176 202 -188 202 -3 0 -14 8 -23 18 -48 49 -183 144 -192 135
-3 -4 -6 -2 -6 3 0 9 -110 68 -200 108 -54 23 -155 55 -197 62 -21 3 -45 9
-53 14 -8 4 -37 10 -65 14 -27 4 -70 10 -95 13 -25 4 -69 7 -97 7 -29 0 -53 4
-53 9 0 4 -8 3 -19 -2 -10 -6 -21 -7 -25 -4 -7 8 -115 11 -122 4z m221 -725
c17 -4 45 -11 63 -17 18 -6 39 -12 46 -13 30 -4 147 -82 197 -130 139 -135
215 -310 265 -606 10 -63 11 -491 1 -570 -5 -36 -16 -94 -24 -130 -8 -36 -17
-76 -19 -89 -3 -13 -10 -34 -16 -45 -6 -12 -11 -23 -11 -26 2 -18 -48 -133
-62 -142 -5 -4 -6 -8 -2 -8 14 0 -72 -118 -124 -170 -27 -27 -80 -68 -117 -90
-57 -35 -93 -49 -192 -78 -8 -2 -76 -5 -150 -5 -153 -1 -210 12 -322 70 -96
50 -231 179 -249 238 -1 6 -9 16 -16 23 -7 7 -13 20 -13 28 0 8 -5 14 -10 14
-6 0 -9 3 -8 8 1 4 -3 18 -9 32 -6 14 -18 43 -27 65 -15 34 -28 80 -50 175
-12 49 -27 179 -31 263 -3 54 -7 103 -10 108 -4 5 -3 9 2 9 4 0 8 11 8 25 0
14 -4 25 -8 25 -5 0 -5 5 -1 11 3 6 8 52 9 103 4 116 24 270 42 316 3 8 7 24
8 35 6 42 80 222 103 248 8 9 11 17 6 17 -5 0 -4 4 1 8 6 4 23 26 38 48 63 93
227 215 310 230 4 1 8 2 10 4 3 3 37 9 82 16 22 3 42 8 44 10 6 5 201 -3 236
-10z"/>
<path d="M17936 8013 c-1 -1 -31 -5 -66 -8 -59 -5 -109 -13 -135 -20 -5 -1
-29 -6 -52 -10 -24 -4 -43 -12 -43 -17 0 -5 -4 -7 -9 -4 -10 7 -59 -10 -144
-47 -31 -15 -58 -25 -60 -24 -1 1 -23 -13 -49 -31 -27 -18 -48 -29 -48 -25 0
4 -4 3 -8 -3 -4 -6 -29 -25 -55 -42 -94 -60 -256 -208 -333 -307 -67 -86 -78
-93 -71 -46 3 16 2 32 -1 35 -3 4 -7 33 -8 65 -2 32 -6 91 -9 132 -3 41 -8
106 -10 144 -2 39 -4 72 -5 75 -1 3 -3 19 -4 35 l-1 30 -123 5 c-68 3 -125 3
-127 0 -2 -3 -56 -3 -120 0 -64 3 -119 2 -121 -1 -2 -4 -20 -3 -39 1 -19 4
-37 5 -39 1 -2 -3 -57 -4 -121 -1 -73 3 -119 1 -123 -5 -4 -5 -7 -30 -7 -55
-1 -25 -4 -51 -9 -58 -4 -6 -4 -12 1 -12 10 0 10 -181 -1 -198 -4 -7 -4 -12 1
-12 4 0 8 -56 8 -125 0 -69 -4 -125 -8 -125 -5 0 -5 -5 -1 -12 11 -17 11 -368
0 -368 -5 0 -4 -6 1 -12 5 -7 7 -65 6 -128 -3 -139 -3 -115 0 -235 1 -55 -1
-106 -6 -112 -5 -7 -6 -13 -1 -13 11 0 11 -181 0 -198 -4 -7 -4 -12 1 -12 4 0
8 -43 8 -95 0 -52 -4 -95 -8 -95 -5 0 -5 -5 -1 -12 11 -17 11 -368 1 -368 -5
0 -5 -5 -1 -12 11 -17 11 -228 0 -228 -5 0 -4 -6 1 -12 10 -16 10 -158 0 -176
-5 -6 -5 -12 0 -12 10 0 10 -181 -1 -198 -4 -7 -4 -12 1 -12 4 0 8 -56 8 -125
0 -69 -4 -125 -9 -125 -5 0 -4 -6 1 -12 5 -7 8 -70 7 -141 l-1 -127 441 2 441
3 1 1030 c1 567 2 1030 3 1030 2 0 4 8 6 18 3 19 80 153 99 174 9 9 46 55 66
82 4 6 126 108 155 129 45 34 220 100 310 117 145 27 523 27 692 -1 21 -4 45
-7 53 -8 15 -2 86 -14 125 -21 11 -2 20 -4 20 -5 0 -1 9 -3 20 -5 11 -2 35 -7
53 -10 23 -4 32 -3 27 4 -3 6 -3 11 2 11 4 0 9 12 9 28 1 15 5 45 8 67 10 68
16 109 22 145 3 19 8 51 10 70 3 19 6 46 8 60 2 14 7 50 11 80 3 30 8 61 11
68 2 8 7 37 10 65 3 29 8 59 11 67 3 8 6 29 8 45 3 36 15 133 18 148 2 10 -88
49 -96 41 -2 -2 -20 1 -40 7 -21 5 -54 12 -75 15 -20 3 -48 7 -62 9 -49 9
-156 18 -207 19 -29 1 -53 5 -53 9 0 4 -8 3 -19 -2 -10 -6 -21 -7 -25 -3 -6 5
-124 10 -130 5z"/>
<path d="M27 7302 c-9 -2 -17 -10 -18 -18 -3 -75 0 -686 3 -690 3 -2 625 -5
1383 -5 1400 0 1409 0 1388 34 -7 11 -7 126 0 133 2 3 1 21 -3 40 -5 20 -4 34
1 34 6 0 5 8 -1 19 -6 12 -6 22 -1 25 5 4 6 18 2 32 -3 14 -4 54 -1 90 3 36 2
67 -1 70 -8 5 -6 30 4 40 3 4 2 15 -3 25 -6 10 -7 20 -3 22 5 3 7 37 5 76 l-4
71 -61 1 c-292 2 -2677 3 -2690 1z"/>
</g>
</svg>
